<svg width="702" height="102" viewBox="0 0 702 102" fill="none" xmlns="http://www.w3.org/2000/svg">
<path d="M83.7852 18.0195H83.3164C80.1133 25.5586 75.0352 38.2539 68.082 56.1055C61.168 73.957 55.5625 87.6875 51.2656 97.2969C51.0703 97.7656 50.1133 98 48.3945 98C46.6758 98 45.6992 97.7656 45.4648 97.2969C45.4648 97.2969 42.5156 91.2422 36.6172 79.1328L21.2656 45.9688C21.2656 45.9688 16.0898 34.3086 5.73828 10.9883C4.21484 7.43359 2.71094 5.30469 1.22656 4.60156C0.71875 4.36719 0.464844 3.87891 0.464844 3.13672C0.464844 2.39453 0.71875 2.02344 1.22656 2.02344H22.4375C22.9453 2.02344 23.1992 2.375 23.1992 3.07812C23.1992 3.74219 23.1016 4.15234 22.9062 4.30859C22.75 4.42578 22.5156 4.5625 22.2031 4.71875C21.8906 4.83594 21.6367 4.99219 21.4414 5.1875C19.293 7.33594 18.6875 9.75781 19.625 12.4531L49.332 78.6641H49.7422L75.2305 12.4531C75.3086 12.1797 75.4648 11.7305 75.6992 11.1055C75.9336 10.4805 76.0898 10.0508 76.168 9.81641C76.2461 9.54297 76.3633 9.17188 76.5195 8.70312C76.6758 8.23438 76.7539 7.88281 76.7539 7.64844V6.71094C76.7539 5.8125 76.3438 5.1875 75.5234 4.83594C74.7031 4.44531 74.293 4.05469 74.293 3.66406C74.293 2.57031 74.5469 2.02344 75.0547 2.02344H94.4492C94.957 2.02344 95.2109 2.375 95.2109 3.07812C95.2109 3.74219 95.1133 4.15234 94.918 4.30859C94.7617 4.42578 94.5273 4.5625 94.2148 4.71875C93.9023 4.83594 93.6094 5.03125 93.3359 5.30469C93.1016 5.53906 92.9258 5.83203 92.8086 6.18359C92.7305 6.53516 92.75 6.98438 92.8672 7.53125C92.9844 8.3125 93.2969 9.32813 93.8047 10.5781L94.5078 12.4531L124.215 78.6641H124.625L150.23 12.4531C151.168 9.75781 150.562 7.33594 148.414 5.1875C148.258 5.03125 147.926 4.83594 147.418 4.60156C146.91 4.36719 146.656 3.87891 146.656 3.13672C146.656 2.39453 146.91 2.02344 147.418 2.02344H165.875C166.383 2.02344 166.637 2.375 166.637 3.07812C166.637 3.74219 166.539 4.15234 166.344 4.30859C166.188 4.42578 165.953 4.5625 165.641 4.71875C164.352 5.30469 162.926 7.39453 161.363 10.9883C157.145 20.4805 151.305 34.8164 143.844 53.9961C136.383 73.1367 130.484 87.5703 126.148 97.2969C125.953 97.7656 124.996 98 123.277 98C121.559 98 120.582 97.7656 120.348 97.2969L106.988 69.6406L83.7852 18.0195ZM173.541 89.0352C173.541 89.0352 186.393 60.2656 212.096 2.72656C212.291 2.25781 213.248 2.02344 214.967 2.02344C216.686 2.02344 217.663 2.25781 217.897 2.72656L257.623 89.0352C259.147 92.5898 260.651 94.7188 262.135 95.4219C262.643 95.6562 262.897 96.1445 262.897 96.8867C262.897 97.6289 262.643 98 262.135 98H240.924C240.416 98 240.163 97.668 240.163 97.0039C240.163 96.3008 240.241 95.8906 240.397 95.7734C240.592 95.6172 240.846 95.4805 241.159 95.3633C241.471 95.207 241.725 95.0312 241.92 94.8359C243.405 93.3516 244.147 91.9844 244.147 90.7344C244.147 89.4453 244.01 88.3906 243.737 87.5703L235.241 67.4727H192.995L184.674 87.5703C184.401 88.3906 184.264 89.0156 184.264 89.4453V90.0898C184.264 90.1289 184.264 90.168 184.264 90.207C184.264 91.8086 185.006 93.3516 186.491 94.8359C186.647 94.9922 186.979 95.1875 187.487 95.4219C187.995 95.6562 188.248 96.1445 188.248 96.8867C188.248 97.6289 187.995 98 187.487 98H169.03C168.522 98 168.268 97.668 168.268 97.0039C168.268 96.3008 168.346 95.8906 168.502 95.7734C168.698 95.6172 168.952 95.4609 169.264 95.3047C170.553 94.7578 171.979 92.668 173.541 89.0352ZM197.155 58.1562C197.077 58.2734 197.057 58.4297 197.096 58.625C197.135 58.7812 197.213 58.8594 197.33 58.8594H230.788C230.905 58.8594 230.983 58.7812 231.022 58.625C231.061 58.4297 231.041 58.2734 230.963 58.1562L214.03 21.3594H213.62L197.155 58.1562ZM356.227 2.02344C356.618 2.02344 356.95 2.53125 357.223 3.54688C357.497 4.52344 357.985 5.91016 358.688 7.70703C358.688 7.70703 359.313 9.28906 360.563 12.4531C361.11 13.8203 361.384 14.582 361.384 14.7383C361.384 14.8945 361.091 15.0703 360.505 15.2656C359.958 15.4609 359.606 15.5586 359.45 15.5586C359.177 15.5586 358.825 15.2852 358.395 14.7383C358.005 14.1523 357.302 13.4687 356.286 12.6875C355.309 11.9063 352.614 11.5156 348.2 11.5156H315.212V87.7461C315.212 90.5977 316.149 92.9609 318.024 94.8359C318.18 94.9922 318.513 95.1875 319.02 95.4219C319.528 95.6562 319.782 96.1445 319.782 96.8867C319.782 97.6289 319.528 98 319.02 98H300.036C299.528 98 299.274 97.668 299.274 97.0039C299.274 96.3008 299.352 95.8906 299.509 95.7734C299.704 95.6172 299.958 95.4805 300.27 95.3633C300.583 95.207 300.973 94.8945 301.442 94.4258C301.95 93.918 302.477 93.0195 303.024 91.7305C303.571 90.4023 303.845 89.0742 303.845 87.7461V11.5156H270.856C265.348 11.5156 262.028 12.4531 260.895 14.3281C260.348 15.1094 259.958 15.5195 259.723 15.5586C259.489 15.5586 259.079 15.4609 258.493 15.2656C257.946 15.0703 257.673 14.8945 257.673 14.7383C257.673 14.582 257.946 13.8203 258.493 12.4531L260.368 7.70703C261.071 5.94922 261.54 4.62109 261.774 3.72266C262.048 2.78516 262.399 2.21875 262.829 2.02344H356.227ZM421.491 91.3203C430.32 91.3203 438.21 89.3281 445.163 85.3438C452.155 81.3594 457.898 76.0078 462.39 69.2891C462.898 68.4688 463.269 68.2148 463.503 68.5273C463.777 68.8398 464.109 69.2695 464.499 69.8164L466.316 72.4531C466.902 73.4297 467.116 74.0352 466.96 74.2695C464.616 79.0352 460.691 83.7031 455.183 88.2734C444.987 96.7891 433.757 101.047 421.491 101.047C414.382 101.047 407.722 99.6797 401.511 96.9453C395.3 94.1719 390.066 90.4805 385.808 85.8711C381.55 81.2617 378.191 75.8711 375.73 69.6992C373.308 63.4883 372.097 57.0625 372.097 50.4219C372.097 43.7812 373.405 37.4336 376.023 31.3789C378.679 25.2852 382.214 20.0312 386.628 15.6172C391.042 11.1641 396.277 7.60937 402.331 4.95312C408.386 2.25781 414.499 0.910156 420.671 0.910156C428.015 0.910156 435.417 2.33594 442.878 5.1875L445.573 6.18359C445.964 6.33984 446.511 6.18359 447.214 5.71484C447.917 5.24609 448.659 5.01172 449.441 5.01172C450.222 5.01172 450.827 5.38281 451.257 6.125C451.413 6.24219 451.472 6.65234 451.433 7.35547C451.355 8.48828 451.823 11.0859 452.839 15.1484L454.304 21.5938C454.695 23.2734 454.89 24.3477 454.89 24.8164C454.89 25.0508 454.382 25.4219 453.366 25.9297C452.39 26.3984 451.823 26.4961 451.667 26.2227C448.425 20.5586 444.343 16.6523 439.421 14.5039C434.538 12.3555 428.425 11.2812 421.081 11.2812C413.777 11.2812 407.175 12.9414 401.277 16.2617C395.378 19.582 390.827 24.2109 387.624 30.1484C384.421 36.0469 382.82 42.7461 382.82 50.2461C382.82 55.168 383.952 60.1484 386.218 65.1875C388.484 70.1875 391.394 74.6016 394.948 78.4297C398.542 82.2188 402.702 85.3242 407.429 87.7461C412.155 90.1289 416.843 91.3203 421.491 91.3203ZM488.103 2.02344H507.087C507.595 2.02344 507.849 2.375 507.849 3.07812C507.849 3.74219 507.752 4.15234 507.556 4.30859C507.4 4.42578 507.166 4.5625 506.853 4.71875C506.541 4.83594 506.13 5.14844 505.623 5.65625C505.154 6.125 504.646 7.02344 504.099 8.35156C503.552 9.64062 503.279 10.9492 503.279 12.2773V38.9375H569.724V12.2773C569.724 9.42578 568.787 7.0625 566.912 5.1875C566.755 5.03125 566.423 4.83594 565.916 4.60156C565.408 4.36719 565.154 3.87891 565.154 3.13672C565.154 2.39453 565.408 2.02344 565.916 2.02344H584.9C585.408 2.02344 585.662 2.375 585.662 3.07812C585.662 3.74219 585.564 4.15234 585.369 4.30859C585.212 4.42578 584.978 4.5625 584.666 4.71875C584.353 4.83594 583.943 5.14844 583.435 5.65625C582.966 6.125 582.459 7.02344 581.912 8.35156C581.365 9.64062 581.091 10.9492 581.091 12.2773V87.7461C581.091 90.5977 582.029 92.9609 583.904 94.8359C584.06 94.9922 584.392 95.1875 584.9 95.4219C585.408 95.6562 585.662 96.1445 585.662 96.8867C585.662 97.6289 585.408 98 584.9 98H565.916C565.408 98 565.154 97.668 565.154 97.0039C565.154 96.3008 565.232 95.8906 565.388 95.7734C565.584 95.6172 565.837 95.4805 566.15 95.3633C566.462 95.207 566.853 94.8945 567.322 94.4258C567.83 93.918 568.357 93.0195 568.904 91.7305C569.451 90.4023 569.724 89.0742 569.724 87.7461V48.6641H503.279V87.7461C503.279 90.5977 504.216 92.9609 506.091 94.8359C506.248 94.9922 506.58 95.1875 507.087 95.4219C507.595 95.6562 507.849 96.1445 507.849 96.8867C507.849 97.6289 507.595 98 507.087 98H488.103C487.595 98 487.341 97.668 487.341 97.0039C487.341 96.3008 487.42 95.8906 487.576 95.7734C487.771 95.6172 488.025 95.4805 488.337 95.3633C488.65 95.207 489.041 94.8945 489.509 94.4258C490.017 93.918 490.545 93.0195 491.091 91.7305C491.638 90.4023 491.912 89.0742 491.912 87.7461V12.2773C491.912 9.42578 490.974 7.0625 489.099 5.1875C488.943 5.03125 488.611 4.83594 488.103 4.60156C487.595 4.36719 487.341 3.87891 487.341 3.13672C487.341 2.39453 487.595 2.02344 488.103 2.02344ZM646.766 57.5117L612.137 10.9883C611.043 9.50391 609.832 8.19531 608.504 7.0625C607.176 5.89062 606.453 5.24609 606.336 5.12891C606.219 5.01172 605.906 4.83594 605.398 4.60156C604.891 4.36719 604.637 3.87891 604.637 3.13672C604.637 2.39453 604.891 2.02344 605.398 2.02344H626.609C627.117 2.02344 627.371 2.375 627.371 3.07812C627.371 3.74219 627.273 4.15234 627.078 4.30859C626.922 4.42578 626.688 4.5625 626.375 4.71875C624.93 5.34375 624.305 6.30078 624.5 7.58984C624.734 8.83984 625.594 10.4609 627.078 12.4531L652.918 47.0234H653.387L679.93 12.4531C682.469 9.28906 683.68 7.39453 683.562 6.76953C683.484 6.10547 683.309 5.63672 683.035 5.36328C682.762 5.08984 682.371 4.83594 681.863 4.60156C681.355 4.36719 681.102 3.87891 681.102 3.13672C681.102 2.39453 681.355 2.02344 681.863 2.02344H700.32C700.828 2.02344 701.082 2.375 701.082 3.07812C701.082 3.74219 700.984 4.15234 700.789 4.30859C700.633 4.42578 700.398 4.5625 700.086 4.71875C699.773 4.83594 699.559 4.95312 699.441 5.07031C699.324 5.1875 699.012 5.42188 698.504 5.77344L696.922 7.00391C695.359 8.25391 694.07 9.58203 693.055 10.9883L658.836 55.4023V87.7461C658.836 90.5977 659.773 92.9609 661.648 94.8359C661.805 94.9922 662.137 95.1875 662.645 95.4219C663.152 95.6562 663.406 96.1445 663.406 96.8867C663.406 97.6289 663.152 98 662.645 98H642.898C642.391 98 642.137 97.668 642.137 97.0039C642.137 96.3008 642.215 95.8906 642.371 95.7734C642.566 95.6172 642.82 95.4805 643.133 95.3633C643.445 95.207 643.855 94.875 644.363 94.3672C644.871 93.8594 645.398 92.9609 645.945 91.6719C646.492 90.3828 646.766 89.0742 646.766 87.7461V57.5117Z" fill="black"/>
</svg>
